# File created by Blade
# Date/Time:  Wed Jan 21 17:57:11 2015
# Frame Rate: 120.000 fps
#------------------------------------------------------
:FULLY-SPECIFIED
:DEGREES
1838
root 12.979486 31.004303 -19.140515 -171.466353 9.650535 -170.991357
Spine 13.723264 7.963278 3.228424
Head 141.657366 4.038185 188.034183
LeftShoulder 11.871301 -12.665636 -0.776506
LeftArm 49.122664 44.012032 -42.760976
LeftForeArm 9.172015 -0.000000 43.129705
LeftHand -4.326760 -0.000000 20.491259
LeftHandThumb1 -26.253704 0.000000 33.147579
RightShoulder 5.348252 -12.565530 7.554770
RightArm 42.315192 -6.215142 65.120268
RightForeArm -24.256244 -0.000000 70.684218
RightHand -16.125749 0.000000 -14.023979
RightHandThumb1 -24.326973 -0.000000 -32.862282
LeftUpLeg -22.127339 13.010996 28.981009
LeftLeg 44.477644 -0.000000 -0.000000
LeftFoot -42.030603 7.218931 -16.443225
LeftToeBase 31.001015 -0.000000 -0.000000
RightUpLeg -25.728481 -6.099302 -23.953601
RightLeg 20.369563 -0.000000 -0.000000
RightFoot 13.744844 -8.127173 19.349841
RightToeBase 6.543541 -0.000000 -0.000000
1839
root 12.964870 31.272149 -19.162586 -171.099502 10.599931 -170.946563
Spine 13.036776 8.292796 2.889185
Head 141.499192 3.641644 188.212959
LeftShoulder 11.538836 -12.481007 -0.658081
LeftArm 48.533399 44.379223 -42.596310
LeftForeArm 9.089466 -0.000000 43.268341
LeftHand -4.081068 -0.000000 20.732059
LeftHandThumb1 -26.253704 0.000000 33.147579
RightShoulder 5.052301 -12.839909 7.772948
RightArm 42.213385 -6.974138 64.499359
RightForeArm -24.466406 0.000000 71.155395
RightHand -15.971482 -0.000000 -13.662329
RightHandThumb1 -24.326973 -0.000000 -32.862282
LeftUpLeg -20.766626 12.689879 28.788411
LeftLeg 42.318367 -0.000000 -0.000000
LeftFoot -41.202396 8.302871 -17.062104
LeftToeBase 30.703912 -0.000000 -0.000000
RightUpLeg -27.213512 -6.966680 -22.618848
RightLeg 21.704334 -0.000000 -0.000000
RightFoot 11.416117 -10.310082 19.955766
RightToeBase 7.674878 -0.000000 -0.000000
1840
root 12.960545 31.535204 -19.185800 -170.765104 11.382218 -170.893351
Spine 12.383662 8.420719 2.597738
Head 141.344548 3.263561 188.337640
LeftShoulder 11.281514 -12.365149 -0.651298
LeftArm 47.712012 44.781760 -42.670087
LeftForeArm 9.579853 -0.000000 43.310188
LeftHand -4.248643 -0.000000 21.235684
LeftHandThumb1 -26.253704 0.000000 33.147579
RightShoulder 4.842787 -13.058478 7.986251
RightArm 42.033830 -7.712266 63.836335
RightForeArm -24.396734 -0.000000 71.589125
RightHand -15.759233 -0.000000 -13.337629
RightHandThumb1 -24.326973 -0.000000 -32.862282
LeftUpLeg -19.464326 12.120720 28.625080
LeftLeg 40.146462 -0.000000 -0.000000
LeftFoot -40.295943 9.486136 -17.710895
LeftToeBase 30.357477 -0.000000 -0.000000
RightUpLeg -28.596754 -8.098219 -21.132824
RightLeg 23.115327 -0.000000 -0.000000
RightFoot 8.393566 -13.065326 20.857609
RightToeBase 9.968929 -0.000000 -0.000000
1841
root 12.961898 31.791184 -19.215296 -170.556614 11.992510 -170.892251
Spine 11.873181 8.374203 2.342170
Head 141.192628 3.021586 188.351877
LeftShoulder 10.976512 -12.247368 -0.668679
LeftArm 46.742173 44.959024 -43.054899
LeftForeArm 10.531193 -0.000000 43.095032
LeftHand -3.884380 -0.000000 20.821714
LeftHandThumb1 -26.253704 0.000000 33.147579
RightShoulder 4.756161 -13.123648 8.106958
RightArm 41.569355 -8.368161 63.445058
RightForeArm -24.670234 -0.000000 72.047795
RightHand -15.497981 0.000000 -12.780490
RightHandThumb1 -24.326973 -0.000000 -32.862282
LeftUpLeg -18.158143 11.379893 28.429742
LeftLeg 37.961111 -0.000000 -0.000000
LeftFoot -39.227766 10.822801 -18.284040
LeftToeBase 29.683041 -0.000000 -0.000000
RightUpLeg -29.747104 -9.463265 -19.633830
RightLeg 24.590164 -0.000000 -0.000000
RightFoot 5.245842 -15.129016 21.291938
RightToeBase 11.046668 -0.000000 -0.000000
